<svg xmlns="http://www.w3.org/2000/svg" xmlns:xlink="http://www.w3.org/1999/xlink" width="200" zoomAndPan="magnify" viewBox="0 0 150 74.999997" height="100" preserveAspectRatio="xMidYMid meet" version="1.0"><defs><g/><clipPath id="17a179635f"><rect x="0" width="150" y="0" height="42"/></clipPath><clipPath id="a762c96565"><path d="M 33 17 L 71 17 L 71 56.25 L 33 56.25 Z M 33 17 " clip-rule="nonzero"/></clipPath><clipPath id="3af28ba0db"><path d="M 32 16 L 71 16 L 71 56.25 L 32 56.25 Z M 32 16 " clip-rule="nonzero"/></clipPath></defs><rect x="-15" width="180" fill="#ffffff" y="-7.5" height="89.999996" fill-opacity="1"/><rect x="-15" width="180" fill="#231f20" y="-7.5" height="89.999996" fill-opacity="1"/><g transform="matrix(1, 0, 0, 1, 0.000000000000000056, 33)"><g clip-path="url(#17a179635f)"><g fill="#cb6ce6" fill-opacity="1"><g transform="translate(1.307332, 40.329367)"><g><path d="M 1.734375 0 C 1.304688 0 0.910156 -0.222656 0.546875 -0.671875 C 0.179688 -1.117188 0 -1.554688 0 -1.984375 L 0.09375 -33.6875 C 0.09375 -34.351562 0.273438 -34.847656 0.640625 -35.171875 C 1.003906 -35.503906 1.40625 -35.671875 1.84375 -35.671875 L 10.734375 -35.625 C 11.523438 -35.625 12.085938 -35.226562 12.421875 -34.4375 L 18.4375 -19.921875 L 24.390625 -34.4375 C 24.722656 -35.226562 25.285156 -35.625 26.078125 -35.625 L 34.984375 -35.671875 C 35.441406 -35.671875 35.84375 -35.503906 36.1875 -35.171875 C 36.539062 -34.847656 36.71875 -34.351562 36.71875 -33.6875 L 36.8125 -1.984375 C 36.8125 -1.554688 36.640625 -1.117188 36.296875 -0.671875 C 35.953125 -0.222656 35.546875 0 35.078125 0 L 26.625 0 C 26.195312 0 25.789062 -0.171875 25.40625 -0.515625 C 25.03125 -0.867188 24.84375 -1.359375 24.84375 -1.984375 L 24.640625 -13.3125 L 21.421875 -6.5625 C 21.285156 -6.289062 21.082031 -5.988281 20.8125 -5.65625 C 20.550781 -5.332031 20.207031 -5.171875 19.78125 -5.171875 L 17.046875 -5.171875 C 16.609375 -5.171875 16.257812 -5.332031 16 -5.65625 C 15.738281 -5.988281 15.539062 -6.289062 15.40625 -6.5625 L 12.171875 -13.3125 L 11.96875 -1.984375 C 11.96875 -1.359375 11.785156 -0.867188 11.421875 -0.515625 C 11.054688 -0.171875 10.644531 0 10.1875 0 Z M 1.734375 0 "/></g></g></g><g fill="#cb6ce6" fill-opacity="1"><g transform="translate(40.110202, 40.329367)"><g><path d="M 10.9375 0 L 1.890625 0 C 1.390625 0 0.945312 -0.195312 0.5625 -0.59375 C 0.1875 -0.988281 0 -1.4375 0 -1.9375 L 0.09375 -32.890625 C 0.09375 -33.453125 0.273438 -33.914062 0.640625 -34.28125 C 1.003906 -34.644531 1.453125 -34.828125 1.984375 -34.828125 L 11.53125 -34.78125 C 12.019531 -34.78125 12.472656 -34.585938 12.890625 -34.203125 C 13.304688 -33.828125 13.5 -33.359375 13.46875 -32.796875 L 12.875 -1.9375 C 12.875 -1.40625 12.679688 -0.945312 12.296875 -0.5625 C 11.910156 -0.1875 11.457031 0 10.9375 0 Z M 10.9375 0 "/></g></g></g><g fill="#cb6ce6" fill-opacity="1"><g transform="translate(55.561794, 40.329367)"><g><path d="M 18.140625 0.296875 C 17.742188 0.296875 17.378906 0.179688 17.046875 -0.046875 C 16.742188 -0.273438 16.523438 -0.59375 16.390625 -1 L 12.46875 -10.734375 L 12.71875 -1.84375 C 12.75 -1.207031 12.566406 -0.707031 12.171875 -0.34375 C 11.742188 0.0507812 11.28125 0.25 10.78125 0.25 L 1.984375 0.296875 C 1.453125 0.296875 1.003906 0.113281 0.640625 -0.25 C 0.273438 -0.613281 0.09375 -1.109375 0.09375 -1.734375 L 0 -33.734375 C 0 -34.234375 0.195312 -34.695312 0.59375 -35.125 C 0.957031 -35.519531 1.390625 -35.71875 1.890625 -35.71875 L 9.9375 -35.71875 C 10.46875 -35.71875 10.929688 -35.519531 11.328125 -35.125 C 11.691406 -34.695312 11.875 -34.234375 11.875 -33.734375 L 12.125 -23.59375 L 16.75 -34.234375 C 16.914062 -34.660156 17.160156 -34.972656 17.484375 -35.171875 C 17.785156 -35.335938 18.1875 -35.421875 18.6875 -35.421875 L 26.984375 -35.484375 C 27.609375 -35.484375 28.101562 -35.164062 28.46875 -34.53125 C 28.863281 -33.96875 28.929688 -33.375 28.671875 -32.75 L 21.96875 -17.4375 L 28.8125 -2.28125 C 29.007812 -1.625 28.925781 -0.992188 28.5625 -0.390625 C 28.164062 0.128906 27.625 0.390625 26.9375 0.390625 Z M 18.140625 0.296875 "/></g></g></g><g fill="#cb6ce6" fill-opacity="1"><g transform="translate(86.464979, 40.329367)"><g><path d="M 9.84375 -0.046875 C 7.414062 -0.835938 5.503906 -1.835938 4.109375 -3.046875 C 2.722656 -4.265625 1.71875 -5.898438 1.09375 -7.953125 C 0.46875 -10.003906 0.101562 -12.65625 0 -15.90625 C 0.101562 -19.144531 0.476562 -22.046875 1.125 -24.609375 C 1.769531 -27.179688 2.785156 -29.351562 4.171875 -31.125 C 5.566406 -32.894531 7.457031 -34.179688 9.84375 -34.984375 C 11.0625 -35.378906 12.445312 -35.597656 14 -35.640625 C 15.5625 -35.691406 17.101562 -35.546875 18.625 -35.203125 C 20.15625 -34.859375 21.484375 -34.300781 22.609375 -33.53125 C 24.265625 -32.40625 25.546875 -31 26.453125 -29.3125 C 27.367188 -27.625 28.015625 -25.691406 28.390625 -23.515625 C 28.773438 -21.347656 29.015625 -18.941406 29.109375 -16.296875 C 29.109375 -13.285156 28.644531 -10.492188 27.71875 -7.921875 C 26.789062 -5.359375 25.085938 -3.234375 22.609375 -1.546875 C 21.484375 -0.773438 20.15625 -0.21875 18.625 0.125 C 17.101562 0.46875 15.5625 0.613281 14 0.5625 C 12.445312 0.519531 11.0625 0.316406 9.84375 -0.046875 Z M 11.421875 -17.046875 C 11.460938 -14.992188 11.785156 -13.4375 12.390625 -12.375 C 13.003906 -11.3125 13.71875 -10.753906 14.53125 -10.703125 C 15.34375 -10.660156 16.070312 -11.132812 16.71875 -12.125 C 17.363281 -13.113281 17.71875 -14.617188 17.78125 -16.640625 C 17.78125 -19.265625 17.457031 -21.269531 16.8125 -22.65625 C 16.164062 -24.050781 15.421875 -24.789062 14.578125 -24.875 C 13.734375 -24.957031 12.992188 -24.347656 12.359375 -23.046875 C 11.734375 -21.753906 11.421875 -19.753906 11.421875 -17.046875 Z M 11.421875 -17.046875 "/></g></g></g><g fill="#cb6ce6" fill-opacity="1"><g transform="translate(117.566898, 40.329367)"><g><path d="M 9.84375 -0.046875 C 7.414062 -0.835938 5.503906 -1.835938 4.109375 -3.046875 C 2.722656 -4.265625 1.71875 -5.898438 1.09375 -7.953125 C 0.46875 -10.003906 0.101562 -12.65625 0 -15.90625 C 0.101562 -19.144531 0.476562 -22.046875 1.125 -24.609375 C 1.769531 -27.179688 2.785156 -29.351562 4.171875 -31.125 C 5.566406 -32.894531 7.457031 -34.179688 9.84375 -34.984375 C 11.0625 -35.378906 12.445312 -35.597656 14 -35.640625 C 15.5625 -35.691406 17.101562 -35.546875 18.625 -35.203125 C 20.15625 -34.859375 21.484375 -34.300781 22.609375 -33.53125 C 24.265625 -32.40625 25.546875 -31 26.453125 -29.3125 C 27.367188 -27.625 28.015625 -25.691406 28.390625 -23.515625 C 28.773438 -21.347656 29.015625 -18.941406 29.109375 -16.296875 C 29.109375 -13.285156 28.644531 -10.492188 27.71875 -7.921875 C 26.789062 -5.359375 25.085938 -3.234375 22.609375 -1.546875 C 21.484375 -0.773438 20.15625 -0.21875 18.625 0.125 C 17.101562 0.46875 15.5625 0.613281 14 0.5625 C 12.445312 0.519531 11.0625 0.316406 9.84375 -0.046875 Z M 11.421875 -17.046875 C 11.460938 -14.992188 11.785156 -13.4375 12.390625 -12.375 C 13.003906 -11.3125 13.71875 -10.753906 14.53125 -10.703125 C 15.34375 -10.660156 16.070312 -11.132812 16.71875 -12.125 C 17.363281 -13.113281 17.71875 -14.617188 17.78125 -16.640625 C 17.78125 -19.265625 17.457031 -21.269531 16.8125 -22.65625 C 16.164062 -24.050781 15.421875 -24.789062 14.578125 -24.875 C 13.734375 -24.957031 12.992188 -24.347656 12.359375 -23.046875 C 11.734375 -21.753906 11.421875 -19.753906 11.421875 -17.046875 Z M 11.421875 -17.046875 "/></g></g></g></g></g><path fill="#fdfdfd" d="M 40.898438 6.941406 C 40.898438 6.941406 41.285156 5.097656 42.328125 3.699219 C 43.726562 1.855469 46.105469 0.425781 48.546875 1.972656 C 51.640625 3.96875 50.71875 7.089844 49.230469 9.144531 C 48.246094 10.484375 46.847656 11.257812 46.847656 11.257812 Z M 40.898438 6.941406 " fill-opacity="1" fill-rule="nonzero"/><path fill="#cb6ce6" d="M 46.847656 11.613281 C 46.910156 11.613281 46.96875 11.613281 47.027344 11.585938 C 47.085938 11.554688 48.515625 10.75 49.527344 9.351562 C 50.65625 7.777344 51.164062 6.050781 50.894531 4.652344 C 50.65625 3.460938 49.945312 2.480469 48.753906 1.707031 C 46.105469 0.0117188 43.515625 1.617188 42.089844 3.519531 C 40.988281 4.980469 40.601562 6.824219 40.601562 6.914062 C 40.570312 7.089844 40.691406 7.269531 40.867188 7.328125 C 41.046875 7.359375 41.226562 7.242188 41.285156 7.0625 C 41.285156 7.03125 41.671875 5.277344 42.652344 3.9375 C 43.964844 2.210938 46.164062 0.84375 48.394531 2.300781 C 49.4375 2.957031 50.0625 3.820312 50.242188 4.800781 C 50.480469 6.050781 50.03125 7.566406 48.992188 8.996094 C 48.070312 10.273438 46.730469 11.019531 46.699219 11.019531 C 46.523438 11.109375 46.460938 11.316406 46.550781 11.496094 C 46.609375 11.554688 46.730469 11.613281 46.847656 11.613281 Z M 46.847656 11.613281 " fill-opacity="1" fill-rule="nonzero"/><path fill="#fdfdfd" d="M 46.582031 4.832031 C 46.582031 4.832031 45.003906 5.753906 44.410156 7.597656 Z M 46.582031 4.832031 " fill-opacity="1" fill-rule="nonzero"/><path fill="#cb6ce6" d="M 44.410156 7.925781 C 44.558594 7.925781 44.675781 7.835938 44.738281 7.6875 C 45.273438 5.992188 46.730469 5.097656 46.730469 5.097656 C 46.910156 5.007812 46.9375 4.800781 46.847656 4.621094 C 46.761719 4.472656 46.550781 4.414062 46.375 4.503906 C 46.3125 4.53125 44.675781 5.515625 44.050781 7.480469 C 43.992188 7.65625 44.082031 7.835938 44.289062 7.894531 C 44.351562 7.925781 44.378906 7.925781 44.410156 7.925781 Z M 44.410156 7.925781 " fill-opacity="1" fill-rule="nonzero"/><g clip-path="url(#a762c96565)"><path fill="#fdfdfd" d="M 70.5625 41.605469 C 70.5625 41.605469 68.449219 30.625 64.105469 26.90625 C 59.761719 23.21875 38.222656 17.296875 38.222656 17.296875 L 46.671875 36.84375 C 46.671875 36.84375 37.449219 40.890625 35.839844 44.964844 C 33.964844 49.636719 33.339844 50.53125 33.339844 52.910156 C 33.339844 52.910156 34.054688 56.0625 36.257812 56.0625 C 38.457031 56.0625 40.867188 55.914062 42.921875 53.832031 C 43.785156 52.941406 44.796875 50.828125 44.796875 50.828125 L 50.835938 49.101562 C 50.835938 49.101562 56.519531 48.03125 59.019531 43.984375 C 59.671875 42.945312 59.878906 41.632812 59.878906 41.632812 Z M 70.5625 41.605469 " fill-opacity="1" fill-rule="nonzero"/></g><g clip-path="url(#3af28ba0db)"><path fill="#cb6ce6" d="M 36.226562 56.390625 C 33.789062 56.390625 33.015625 53.117188 32.984375 52.96875 C 32.984375 50.945312 33.371094 49.964844 34.472656 47.347656 C 34.769531 46.632812 35.097656 45.828125 35.511719 44.816406 C 37.03125 41.039062 44.558594 37.410156 46.222656 36.664062 L 37.894531 17.445312 C 37.835938 17.328125 37.863281 17.179688 37.953125 17.089844 C 38.042969 17 38.160156 16.96875 38.308594 16.96875 C 39.203125 17.207031 60 22.949219 64.34375 26.640625 C 68.71875 30.359375 70.828125 41.070312 70.890625 41.515625 C 70.917969 41.605469 70.890625 41.722656 70.828125 41.78125 C 70.769531 41.871094 70.679688 41.902344 70.5625 41.902344 L 60.117188 41.902344 C 60.03125 42.347656 59.761719 43.300781 59.257812 44.105469 C 56.695312 48.238281 51.105469 49.339844 50.867188 49.371094 L 45.003906 51.035156 C 44.765625 51.542969 43.902344 53.207031 43.128906 54.011719 C 41.046875 56.214844 38.578125 56.390625 36.226562 56.390625 Z M 33.667969 52.910156 C 33.667969 52.910156 34.351562 55.738281 36.226562 55.738281 C 38.519531 55.738281 40.75 55.558594 42.625 53.59375 C 43.425781 52.761719 44.4375 50.679688 44.4375 50.679688 C 44.46875 50.589844 44.558594 50.53125 44.648438 50.5 L 50.6875 48.773438 C 50.777344 48.746094 56.28125 47.675781 58.660156 43.804688 C 59.257812 42.824219 59.464844 41.574219 59.464844 41.574219 C 59.492188 41.394531 59.644531 41.277344 59.792969 41.277344 L 70.085938 41.277344 C 69.667969 39.285156 67.558594 30.359375 63.835938 27.203125 C 60.03125 23.960938 42.476562 18.902344 38.757812 17.863281 L 46.9375 36.753906 C 46.996094 36.933594 46.9375 37.140625 46.761719 37.203125 C 46.671875 37.230469 37.65625 41.246094 36.109375 45.117188 C 35.722656 46.097656 35.363281 46.929688 35.066406 47.644531 C 34.027344 50.203125 33.667969 51.097656 33.667969 52.910156 Z M 33.667969 52.910156 " fill-opacity="1" fill-rule="nonzero"/></g><path fill="#fdfdfd" d="M 30.039062 42.527344 L 24.503906 38.273438 L 19.417969 23.425781 C 19.417969 23.425781 14.777344 28.8125 13.40625 35.265625 C 12.007812 41.722656 14.152344 44.9375 16.917969 45.769531 C 19.65625 46.601562 22.273438 46.363281 22.273438 46.363281 C 22.273438 46.363281 24.953125 50.054688 28.105469 48.835938 C 30.78125 47.792969 31.703125 44.757812 30.039062 42.527344 Z M 30.039062 42.527344 " fill-opacity="1" fill-rule="nonzero"/><path fill="#cb6ce6" d="M 26.765625 49.429688 C 24.445312 49.429688 22.601562 47.316406 22.125 46.722656 C 21.46875 46.75 19.210938 46.839844 16.800781 46.097656 C 15.460938 45.679688 11.234375 43.6875 13.050781 35.179688 C 14.417969 28.75 19.089844 23.277344 19.148438 23.21875 C 19.238281 23.128906 19.359375 23.070312 19.476562 23.097656 C 19.597656 23.128906 19.683594 23.21875 19.746094 23.335938 L 24.800781 38.0625 L 30.246094 42.257812 C 30.277344 42.289062 30.308594 42.289062 30.308594 42.320312 C 31.140625 43.449219 31.40625 44.847656 31.019531 46.15625 C 30.632812 47.527344 29.59375 48.597656 28.195312 49.160156 C 27.71875 49.339844 27.242188 49.429688 26.765625 49.429688 Z M 22.273438 46.007812 C 22.390625 46.007812 22.480469 46.066406 22.542969 46.15625 C 22.570312 46.1875 25.101562 49.609375 27.957031 48.507812 C 29.144531 48.03125 30.039062 47.109375 30.367188 45.949219 C 30.664062 44.878906 30.457031 43.71875 29.769531 42.765625 L 24.296875 38.539062 C 24.238281 38.511719 24.207031 38.449219 24.175781 38.390625 L 19.269531 24.109375 C 18.136719 25.539062 14.804688 30.121094 13.703125 35.328125 C 12.574219 40.683594 13.792969 44.460938 17.007812 45.441406 C 19.65625 46.246094 22.214844 46.007812 22.242188 46.007812 C 22.242188 46.007812 22.273438 46.007812 22.273438 46.007812 Z M 22.273438 46.007812 " fill-opacity="1" fill-rule="nonzero"/><path fill="#fdfdfd" d="M 22.988281 7.597656 C 20.25 9.382812 16.679688 14.917969 15.757812 21.105469 C 14.925781 26.699219 15.550781 29.613281 17.335938 32.796875 C 19.476562 36.636719 24.921875 39.433594 31.378906 39.433594 C 37.835938 39.433594 40.066406 39.609375 44.914062 38.421875 C 49.765625 37.230469 56.609375 32.292969 52.351562 22.742188 C 52.351562 22.742188 51.640625 12.269531 45.71875 7.628906 C 42.863281 5.722656 40.988281 4.234375 35.484375 4.027344 C 29.980469 3.789062 25.160156 6.167969 22.988281 7.597656 Z M 22.988281 7.597656 " fill-opacity="1" fill-rule="nonzero"/><path fill="#cb6ce6" d="M 35.125 39.761719 C 34.621094 39.761719 34.085938 39.761719 33.488281 39.761719 L 31.378906 39.761719 C 25.070312 39.761719 19.296875 37.023438 17.035156 32.945312 C 15.371094 29.941406 14.566406 27.027344 15.429688 21.046875 C 16.324219 14.886719 19.894531 9.234375 22.808594 7.300781 C 25.664062 5.394531 30.515625 3.433594 35.484375 3.640625 C 40.75 3.847656 42.773438 5.21875 45.363281 6.941406 L 45.898438 7.300781 C 51.730469 11.882812 52.589844 21.671875 52.679688 22.621094 C 54.347656 26.371094 54.464844 29.734375 53.066406 32.621094 C 51.371094 36.070312 47.800781 38.035156 45.003906 38.71875 C 41.195312 39.671875 38.996094 39.761719 35.125 39.761719 Z M 22.988281 7.597656 L 23.167969 7.894531 C 20.371094 9.738281 16.949219 15.214844 16.085938 21.164062 C 15.222656 26.996094 15.964844 29.675781 17.601562 32.648438 C 19.773438 36.515625 25.277344 39.105469 31.347656 39.105469 L 33.460938 39.105469 C 38.308594 39.105469 40.570312 39.136719 44.796875 38.09375 C 47.445312 37.4375 50.835938 35.59375 52.414062 32.351562 C 53.722656 29.644531 53.601562 26.460938 51.996094 22.890625 C 51.964844 22.859375 51.964844 22.800781 51.964844 22.769531 C 51.964844 22.683594 51.191406 12.386719 45.480469 7.894531 L 44.976562 7.566406 C 42.386719 5.84375 40.511719 4.59375 35.453125 4.382812 C 29.265625 4.058594 24.148438 7.242188 23.195312 7.867188 Z M 22.988281 7.597656 " fill-opacity="1" fill-rule="nonzero"/><path fill="#fdfdfd" d="M 30.039062 33.246094 C 30.039062 33.246094 31.855469 34.078125 32.714844 32.113281 Z M 30.039062 33.246094 " fill-opacity="1" fill-rule="nonzero"/><path fill="#cb6ce6" d="M 30.929688 33.75 C 30.367188 33.75 29.949219 33.542969 29.917969 33.542969 C 29.742188 33.453125 29.683594 33.273438 29.742188 33.09375 C 29.832031 32.917969 30.007812 32.828125 30.1875 32.917969 C 30.1875 32.917969 30.84375 33.214844 31.46875 32.976562 C 31.855469 32.828125 32.179688 32.5 32.417969 31.964844 C 32.480469 31.785156 32.6875 31.695312 32.867188 31.785156 C 33.042969 31.875 33.101562 32.054688 33.042969 32.234375 C 32.746094 32.917969 32.300781 33.363281 31.703125 33.601562 C 31.4375 33.71875 31.167969 33.75 30.929688 33.75 Z M 30.929688 33.75 " fill-opacity="1" fill-rule="nonzero"/><path fill="#fdfdfd" d="M 34.679688 36.605469 C 34.679688 36.605469 32.597656 36.429688 31.703125 33.246094 Z M 34.679688 36.605469 " fill-opacity="1" fill-rule="nonzero"/><path fill="#cb6ce6" d="M 34.679688 36.964844 C 34.652344 36.964844 34.652344 36.964844 34.679688 36.964844 C 34.5625 36.964844 32.328125 36.726562 31.378906 33.363281 C 31.316406 33.183594 31.4375 33.007812 31.617188 32.945312 C 31.824219 32.917969 31.972656 33.007812 32.03125 33.183594 C 32.835938 36.070312 34.621094 36.277344 34.710938 36.308594 C 34.886719 36.339844 35.039062 36.488281 35.007812 36.664062 C 35.007812 36.816406 34.859375 36.964844 34.679688 36.964844 Z M 34.679688 36.964844 " fill-opacity="1" fill-rule="nonzero"/><path fill="#cb6ce6" d="M 34.949219 23.425781 C 34.949219 23.644531 34.90625 23.851562 34.824219 24.050781 C 34.742188 24.253906 34.621094 24.429688 34.46875 24.582031 C 34.316406 24.738281 34.136719 24.855469 33.9375 24.9375 C 33.738281 25.019531 33.527344 25.0625 33.3125 25.0625 C 33.09375 25.0625 32.886719 25.019531 32.683594 24.9375 C 32.484375 24.855469 32.308594 24.738281 32.15625 24.582031 C 32 24.429688 31.882812 24.253906 31.800781 24.050781 C 31.71875 23.851562 31.675781 23.644531 31.675781 23.425781 C 31.675781 23.207031 31.71875 23 31.800781 22.800781 C 31.882812 22.597656 32 22.421875 32.15625 22.269531 C 32.308594 22.117188 32.484375 21.996094 32.683594 21.914062 C 32.886719 21.832031 33.09375 21.789062 33.3125 21.789062 C 33.527344 21.789062 33.738281 21.832031 33.9375 21.914062 C 34.136719 21.996094 34.316406 22.117188 34.46875 22.269531 C 34.621094 22.421875 34.742188 22.597656 34.824219 22.800781 C 34.90625 23 34.949219 23.207031 34.949219 23.425781 Z M 34.949219 23.425781 " fill-opacity="1" fill-rule="nonzero"/><path fill="#cb6ce6" d="M 51.640625 23.425781 C 51.640625 23.644531 51.597656 23.851562 51.515625 24.050781 C 51.433594 24.253906 51.3125 24.429688 51.160156 24.582031 C 51.007812 24.738281 50.828125 24.855469 50.628906 24.9375 C 50.429688 25.019531 50.21875 25.0625 50.003906 25.0625 C 49.785156 25.0625 49.578125 25.019531 49.375 24.9375 C 49.175781 24.855469 49 24.738281 48.847656 24.582031 C 48.691406 24.429688 48.574219 24.253906 48.492188 24.050781 C 48.40625 23.851562 48.367188 23.644531 48.367188 23.425781 C 48.367188 23.207031 48.40625 23 48.492188 22.800781 C 48.574219 22.597656 48.691406 22.421875 48.847656 22.269531 C 49 22.117188 49.175781 21.996094 49.375 21.914062 C 49.578125 21.832031 49.785156 21.789062 50.003906 21.789062 C 50.21875 21.789062 50.429688 21.832031 50.628906 21.914062 C 50.828125 21.996094 51.007812 22.117188 51.160156 22.269531 C 51.3125 22.421875 51.433594 22.597656 51.515625 22.800781 C 51.597656 23 51.640625 23.207031 51.640625 23.425781 Z M 51.640625 23.425781 " fill-opacity="1" fill-rule="nonzero"/><path fill="#fdfdfd" d="M 27.0625 6.941406 C 27.0625 6.941406 26.675781 5.097656 25.636719 3.699219 C 24.238281 1.824219 21.828125 0.425781 19.417969 1.972656 C 16.324219 3.96875 17.246094 7.089844 18.734375 9.144531 C 19.714844 10.484375 21.113281 11.257812 21.113281 11.257812 Z M 27.0625 6.941406 " fill-opacity="1" fill-rule="nonzero"/><path fill="#cb6ce6" d="M 21.113281 11.613281 C 21.054688 11.613281 20.996094 11.613281 20.933594 11.585938 C 20.875 11.554688 19.445312 10.75 18.433594 9.351562 C 17.304688 7.777344 16.800781 6.050781 17.066406 4.652344 C 17.304688 3.460938 18.019531 2.480469 19.210938 1.707031 C 21.855469 0.0117188 24.445312 1.617188 25.875 3.519531 C 26.972656 4.980469 27.359375 6.824219 27.359375 6.914062 C 27.390625 7.089844 27.273438 7.269531 27.09375 7.328125 C 26.914062 7.359375 26.738281 7.242188 26.675781 7.0625 C 26.675781 7.03125 26.289062 5.277344 25.308594 3.9375 C 24.027344 2.152344 21.828125 0.8125 19.597656 2.242188 C 18.554688 2.898438 17.929688 3.757812 17.75 4.742188 C 17.511719 5.992188 17.960938 7.507812 19 8.9375 C 19.921875 10.214844 21.261719 10.960938 21.292969 10.960938 C 21.46875 11.050781 21.53125 11.257812 21.441406 11.4375 C 21.351562 11.554688 21.230469 11.613281 21.113281 11.613281 Z M 21.113281 11.613281 " fill-opacity="1" fill-rule="nonzero"/><path fill="#fdfdfd" d="M 21.382812 4.832031 C 21.382812 4.832031 22.957031 5.753906 23.554688 7.597656 Z M 21.382812 4.832031 " fill-opacity="1" fill-rule="nonzero"/><path fill="#cb6ce6" d="M 23.523438 7.925781 C 23.375 7.925781 23.253906 7.835938 23.195312 7.6875 C 22.660156 5.992188 21.203125 5.097656 21.203125 5.097656 C 21.023438 5.007812 20.996094 4.800781 21.082031 4.621094 C 21.171875 4.472656 21.382812 4.414062 21.558594 4.503906 C 21.617188 4.53125 23.253906 5.515625 23.878906 7.480469 C 23.941406 7.65625 23.851562 7.835938 23.640625 7.894531 C 23.613281 7.925781 23.582031 7.925781 23.523438 7.925781 Z M 23.523438 7.925781 " fill-opacity="1" fill-rule="nonzero"/><path fill="#cb6ce6" d="M 50.804688 26.015625 C 50.804688 27.324219 49.289062 28.839844 47.414062 28.839844 C 45.539062 28.839844 44.023438 27.324219 44.023438 26.015625 C 44.023438 24.707031 45.539062 24.082031 47.414062 24.082031 C 49.289062 24.109375 50.804688 24.707031 50.804688 26.015625 Z M 50.804688 26.015625 " fill-opacity="1" fill-rule="nonzero"/><path fill="#cb6ce6" d="M 48.070312 35.863281 C 47.890625 35.863281 47.742188 35.714844 47.742188 35.535156 L 47.742188 28.78125 C 47.742188 28.601562 47.890625 28.453125 48.070312 28.453125 C 48.246094 28.453125 48.394531 28.601562 48.394531 28.78125 L 48.394531 35.503906 C 48.425781 35.714844 48.246094 35.863281 48.070312 35.863281 Z M 48.070312 35.863281 " fill-opacity="1" fill-rule="nonzero"/><path fill="#fdfdfd" d="M 60.03125 41.308594 C 60.417969 40.652344 60.59375 38.6875 60.742188 37.945312 Z M 60.03125 41.308594 " fill-opacity="1" fill-rule="nonzero"/><path fill="#cb6ce6" d="M 60.03125 41.632812 C 59.96875 41.632812 59.910156 41.605469 59.851562 41.574219 C 59.703125 41.484375 59.644531 41.277344 59.730469 41.097656 C 60 40.652344 60.179688 39.433594 60.265625 38.601562 C 60.296875 38.300781 60.355469 38.035156 60.386719 37.855469 C 60.417969 37.675781 60.59375 37.558594 60.773438 37.589844 C 60.953125 37.617188 61.070312 37.796875 61.042969 37.976562 C 61.011719 38.152344 60.980469 38.421875 60.921875 38.6875 C 60.773438 39.671875 60.625 40.890625 60.296875 41.425781 C 60.265625 41.574219 60.148438 41.632812 60.03125 41.632812 Z M 60.03125 41.632812 " fill-opacity="1" fill-rule="nonzero"/></svg>