<svg xmlns="http://www.w3.org/2000/svg" xmlns:xlink="http://www.w3.org/1999/xlink" width="200" zoomAndPan="magnify" viewBox="0 0 150 149.999998" height="200" preserveAspectRatio="xMidYMid meet" version="1.0"><defs><g/><clipPath id="63d53363d6"><rect x="0" width="150" y="0" height="52"/></clipPath><clipPath id="f33bd69a48"><path d="M 43 40 L 81.652344 40 L 81.652344 80.492188 L 43 80.492188 Z M 43 40 " clip-rule="nonzero"/></clipPath></defs><g transform="matrix(1, 0, 0, 1, -0.000000000000000111, 57)"><g clip-path="url(#63d53363d6)"><g fill="#231f20" fill-opacity="1"><g transform="translate(1.598398, 40.71257)"><g><path d="M 1.75 0 C 1.320312 0 0.921875 -0.222656 0.546875 -0.671875 C 0.179688 -1.128906 0 -1.578125 0 -2.015625 L 0.09375 -34.03125 C 0.09375 -34.707031 0.273438 -35.210938 0.640625 -35.546875 C 1.015625 -35.878906 1.421875 -36.046875 1.859375 -36.046875 L 10.84375 -36 C 11.644531 -36 12.210938 -35.597656 12.546875 -34.796875 L 18.625 -20.125 L 24.65625 -34.796875 C 24.988281 -35.597656 25.554688 -36 26.359375 -36 L 35.34375 -36.046875 C 35.8125 -36.046875 36.21875 -35.878906 36.5625 -35.546875 C 36.914062 -35.210938 37.09375 -34.707031 37.09375 -34.03125 L 37.203125 -2.015625 C 37.203125 -1.578125 37.023438 -1.128906 36.671875 -0.671875 C 36.316406 -0.222656 35.90625 0 35.4375 0 L 26.90625 0 C 26.46875 0 26.054688 -0.171875 25.671875 -0.515625 C 25.285156 -0.867188 25.09375 -1.367188 25.09375 -2.015625 L 24.90625 -13.453125 L 21.640625 -6.625 C 21.503906 -6.351562 21.300781 -6.050781 21.03125 -5.71875 C 20.769531 -5.382812 20.421875 -5.21875 19.984375 -5.21875 L 17.21875 -5.21875 C 16.78125 -5.21875 16.425781 -5.382812 16.15625 -5.71875 C 15.894531 -6.050781 15.695312 -6.351562 15.5625 -6.625 L 12.296875 -13.453125 L 12.09375 -2.015625 C 12.09375 -1.367188 11.910156 -0.867188 11.546875 -0.515625 C 11.179688 -0.171875 10.765625 0 10.296875 0 Z M 1.75 0 "/></g></g></g><g fill="#231f20" fill-opacity="1"><g transform="translate(40.807461, 40.71257)"><g><path d="M 11.046875 0 L 1.90625 0 C 1.40625 0 0.960938 -0.195312 0.578125 -0.59375 C 0.191406 -1 0 -1.453125 0 -1.953125 L 0.09375 -33.234375 C 0.09375 -33.804688 0.273438 -34.273438 0.640625 -34.640625 C 1.015625 -35.003906 1.472656 -35.1875 2.015625 -35.1875 L 11.640625 -35.140625 C 12.148438 -35.140625 12.613281 -34.945312 13.03125 -34.5625 C 13.445312 -34.175781 13.640625 -33.703125 13.609375 -33.140625 L 13 -1.953125 C 13 -1.421875 12.804688 -0.960938 12.421875 -0.578125 C 12.035156 -0.191406 11.578125 0 11.046875 0 Z M 11.046875 0 "/></g></g></g><g fill="#231f20" fill-opacity="1"><g transform="translate(56.420803, 40.71257)"><g><path d="M 18.328125 0.296875 C 17.921875 0.296875 17.550781 0.179688 17.21875 -0.046875 C 16.914062 -0.285156 16.695312 -0.601562 16.5625 -1 L 12.59375 -10.84375 L 12.859375 -1.859375 C 12.890625 -1.222656 12.703125 -0.71875 12.296875 -0.34375 C 11.859375 0.0507812 11.390625 0.25 10.890625 0.25 L 2.015625 0.296875 C 1.472656 0.296875 1.019531 0.113281 0.65625 -0.25 C 0.28125 -0.613281 0.09375 -1.113281 0.09375 -1.75 L 0 -34.09375 C 0 -34.59375 0.203125 -35.0625 0.609375 -35.5 C 0.972656 -35.894531 1.40625 -36.09375 1.90625 -36.09375 L 10.046875 -36.09375 C 10.578125 -36.09375 11.046875 -35.894531 11.453125 -35.5 C 11.816406 -35.0625 12 -34.59375 12 -34.09375 L 12.25 -23.84375 L 16.921875 -34.59375 C 17.085938 -35.03125 17.335938 -35.347656 17.671875 -35.546875 C 17.972656 -35.710938 18.375 -35.796875 18.875 -35.796875 L 27.265625 -35.84375 C 27.898438 -35.84375 28.398438 -35.523438 28.765625 -34.890625 C 29.171875 -34.316406 29.238281 -33.710938 28.96875 -33.078125 L 22.1875 -17.625 L 29.125 -2.3125 C 29.320312 -1.644531 29.234375 -1.007812 28.859375 -0.40625 C 28.460938 0.132812 27.910156 0.40625 27.203125 0.40625 Z M 18.328125 0.296875 "/></g></g></g><g fill="#231f20" fill-opacity="1"><g transform="translate(87.647485, 40.71257)"><g><path d="M 9.9375 -0.046875 C 7.5 -0.847656 5.578125 -1.859375 4.171875 -3.078125 C 2.765625 -4.304688 1.742188 -5.957031 1.109375 -8.03125 C 0.472656 -10.101562 0.101562 -12.78125 0 -16.0625 C 0.101562 -19.34375 0.476562 -22.28125 1.125 -24.875 C 1.78125 -27.46875 2.8125 -29.660156 4.21875 -31.453125 C 5.625 -33.242188 7.53125 -34.539062 9.9375 -35.34375 C 11.175781 -35.75 12.582031 -35.972656 14.15625 -36.015625 C 15.726562 -36.066406 17.285156 -35.914062 18.828125 -35.5625 C 20.367188 -35.21875 21.707031 -34.660156 22.84375 -33.890625 C 24.519531 -32.753906 25.816406 -31.332031 26.734375 -29.625 C 27.648438 -27.914062 28.300781 -25.960938 28.6875 -23.765625 C 29.070312 -21.578125 29.316406 -19.144531 29.421875 -16.46875 C 29.421875 -13.414062 28.953125 -10.59375 28.015625 -8 C 27.078125 -5.40625 25.351562 -3.257812 22.84375 -1.5625 C 21.707031 -0.789062 20.367188 -0.226562 18.828125 0.125 C 17.285156 0.476562 15.726562 0.628906 14.15625 0.578125 C 12.582031 0.523438 11.175781 0.316406 9.9375 -0.046875 Z M 11.546875 -17.21875 C 11.578125 -15.144531 11.898438 -13.570312 12.515625 -12.5 C 13.140625 -11.425781 13.863281 -10.863281 14.6875 -10.8125 C 15.507812 -10.769531 16.242188 -11.25 16.890625 -12.25 C 17.546875 -13.25 17.90625 -14.769531 17.96875 -16.8125 C 17.96875 -19.457031 17.640625 -21.484375 16.984375 -22.890625 C 16.335938 -24.296875 15.585938 -25.039062 14.734375 -25.125 C 13.878906 -25.207031 13.132812 -24.597656 12.5 -23.296875 C 11.863281 -21.992188 11.546875 -19.96875 11.546875 -17.21875 Z M 11.546875 -17.21875 "/></g></g></g><g fill="#231f20" fill-opacity="1"><g transform="translate(119.074983, 40.71257)"><g><path d="M 9.9375 -0.046875 C 7.5 -0.847656 5.578125 -1.859375 4.171875 -3.078125 C 2.765625 -4.304688 1.742188 -5.957031 1.109375 -8.03125 C 0.472656 -10.101562 0.101562 -12.78125 0 -16.0625 C 0.101562 -19.34375 0.476562 -22.28125 1.125 -24.875 C 1.78125 -27.46875 2.8125 -29.660156 4.21875 -31.453125 C 5.625 -33.242188 7.53125 -34.539062 9.9375 -35.34375 C 11.175781 -35.75 12.582031 -35.972656 14.15625 -36.015625 C 15.726562 -36.066406 17.285156 -35.914062 18.828125 -35.5625 C 20.367188 -35.21875 21.707031 -34.660156 22.84375 -33.890625 C 24.519531 -32.753906 25.816406 -31.332031 26.734375 -29.625 C 27.648438 -27.914062 28.300781 -25.960938 28.6875 -23.765625 C 29.070312 -21.578125 29.316406 -19.144531 29.421875 -16.46875 C 29.421875 -13.414062 28.953125 -10.59375 28.015625 -8 C 27.078125 -5.40625 25.351562 -3.257812 22.84375 -1.5625 C 21.707031 -0.789062 20.367188 -0.226562 18.828125 0.125 C 17.285156 0.476562 15.726562 0.628906 14.15625 0.578125 C 12.582031 0.523438 11.175781 0.316406 9.9375 -0.046875 Z M 11.546875 -17.21875 C 11.578125 -15.144531 11.898438 -13.570312 12.515625 -12.5 C 13.140625 -11.425781 13.863281 -10.863281 14.6875 -10.8125 C 15.507812 -10.769531 16.242188 -11.25 16.890625 -12.25 C 17.546875 -13.25 17.90625 -14.769531 17.96875 -16.8125 C 17.96875 -19.457031 17.640625 -21.484375 16.984375 -22.890625 C 16.335938 -24.296875 15.585938 -25.039062 14.734375 -25.125 C 13.878906 -25.207031 13.132812 -24.597656 12.5 -23.296875 C 11.863281 -21.992188 11.546875 -19.96875 11.546875 -17.21875 Z M 11.546875 -17.21875 "/></g></g></g></g></g><path fill="#cb6ce6" d="M 51.625 30.503906 C 51.625 30.503906 52.015625 28.640625 53.066406 27.230469 C 54.480469 25.363281 56.886719 23.921875 59.351562 25.484375 C 62.476562 27.5 61.546875 30.65625 60.042969 32.730469 C 59.050781 34.082031 57.636719 34.863281 57.636719 34.863281 Z M 51.625 30.503906 " fill-opacity="1" fill-rule="nonzero"/><path fill="#231f20" d="M 57.636719 35.226562 C 57.699219 35.226562 57.757812 35.226562 57.816406 35.195312 C 57.878906 35.164062 59.320312 34.351562 60.34375 32.941406 C 61.484375 31.347656 61.996094 29.605469 61.726562 28.191406 C 61.484375 26.988281 60.765625 25.996094 59.5625 25.214844 C 56.886719 23.5 54.269531 25.125 52.828125 27.046875 C 51.714844 28.519531 51.324219 30.386719 51.324219 30.476562 C 51.292969 30.65625 51.414062 30.835938 51.59375 30.894531 C 51.773438 30.925781 51.957031 30.804688 52.015625 30.625 C 52.015625 30.597656 52.40625 28.820312 53.398438 27.46875 C 54.722656 25.726562 56.945312 24.34375 59.199219 25.816406 C 60.253906 26.476562 60.882812 27.347656 61.066406 28.339844 C 61.304688 29.605469 60.855469 31.136719 59.800781 32.578125 C 58.871094 33.871094 57.515625 34.625 57.488281 34.625 C 57.308594 34.714844 57.246094 34.925781 57.335938 35.105469 C 57.398438 35.164062 57.515625 35.226562 57.636719 35.226562 Z M 57.636719 35.226562 " fill-opacity="1" fill-rule="nonzero"/><path fill="#cb6ce6" d="M 57.367188 28.371094 C 57.367188 28.371094 55.773438 29.304688 55.171875 31.167969 Z M 57.367188 28.371094 " fill-opacity="1" fill-rule="nonzero"/><path fill="#231f20" d="M 55.171875 31.496094 C 55.324219 31.496094 55.441406 31.40625 55.503906 31.257812 C 56.042969 29.542969 57.515625 28.640625 57.515625 28.640625 C 57.699219 28.550781 57.726562 28.339844 57.636719 28.160156 C 57.546875 28.011719 57.335938 27.949219 57.15625 28.039062 C 57.097656 28.070312 55.441406 29.0625 54.8125 31.046875 C 54.75 31.226562 54.839844 31.40625 55.050781 31.46875 C 55.113281 31.496094 55.140625 31.496094 55.171875 31.496094 Z M 55.171875 31.496094 " fill-opacity="1" fill-rule="nonzero"/><g clip-path="url(#f33bd69a48)"><path fill="#cb6ce6" d="M 81.597656 65.527344 C 81.597656 65.527344 79.460938 54.433594 75.074219 50.675781 C 70.683594 46.949219 48.917969 40.96875 48.917969 40.96875 L 57.457031 60.71875 C 57.457031 60.71875 48.136719 64.804688 46.515625 68.925781 C 44.621094 73.644531 43.988281 74.546875 43.988281 76.953125 C 43.988281 76.953125 44.710938 80.136719 46.933594 80.136719 C 49.160156 80.136719 51.59375 79.988281 53.667969 77.882812 C 54.542969 76.980469 55.5625 74.847656 55.5625 74.847656 L 61.664062 73.105469 C 61.664062 73.105469 67.40625 72.019531 69.933594 67.933594 C 70.59375 66.878906 70.804688 65.558594 70.804688 65.558594 Z M 81.597656 65.527344 " fill-opacity="1" fill-rule="nonzero"/><path fill="#231f20" d="M 46.90625 80.46875 C 44.441406 80.46875 43.660156 77.160156 43.628906 77.011719 C 43.628906 74.96875 44.019531 73.976562 45.132812 71.328125 C 45.433594 70.609375 45.761719 69.796875 46.183594 68.773438 C 47.71875 64.957031 55.324219 61.289062 57.007812 60.539062 L 48.589844 41.117188 C 48.527344 40.996094 48.558594 40.847656 48.648438 40.757812 C 48.738281 40.667969 48.859375 40.636719 49.007812 40.636719 C 49.910156 40.878906 70.925781 46.679688 75.3125 50.40625 C 79.734375 54.164062 81.867188 64.988281 81.925781 65.4375 C 81.957031 65.527344 81.925781 65.648438 81.867188 65.707031 C 81.808594 65.796875 81.71875 65.828125 81.597656 65.828125 L 71.046875 65.828125 C 70.953125 66.28125 70.683594 67.242188 70.171875 68.054688 C 67.589844 72.230469 61.9375 73.34375 61.695312 73.375 L 55.773438 75.058594 C 55.53125 75.570312 54.660156 77.253906 53.878906 78.0625 C 51.773438 80.289062 49.28125 80.46875 46.90625 80.46875 Z M 44.320312 76.953125 C 44.320312 76.953125 45.011719 79.808594 46.90625 79.808594 C 49.21875 79.808594 51.476562 79.628906 53.367188 77.644531 C 54.179688 76.800781 55.203125 74.695312 55.203125 74.695312 C 55.234375 74.605469 55.324219 74.546875 55.414062 74.515625 L 61.515625 72.773438 C 61.605469 72.742188 67.167969 71.660156 69.570312 67.753906 C 70.171875 66.761719 70.382812 65.496094 70.382812 65.496094 C 70.414062 65.316406 70.5625 65.195312 70.714844 65.195312 L 81.117188 65.195312 C 80.695312 63.183594 78.5625 54.164062 74.804688 50.976562 C 70.953125 47.699219 53.21875 42.589844 49.460938 41.539062 L 57.726562 60.628906 C 57.789062 60.808594 57.726562 61.019531 57.546875 61.078125 C 57.457031 61.109375 48.347656 65.167969 46.785156 69.074219 C 46.394531 70.066406 46.035156 70.910156 45.734375 71.628906 C 44.679688 74.214844 44.320312 75.117188 44.320312 76.953125 Z M 44.320312 76.953125 " fill-opacity="1" fill-rule="nonzero"/></g><path fill="#cb6ce6" d="M 40.652344 66.460938 L 35.0625 62.160156 L 29.921875 47.160156 C 29.921875 47.160156 25.230469 52.601562 23.847656 59.125 C 22.433594 65.648438 24.597656 68.894531 27.394531 69.738281 C 30.160156 70.578125 32.804688 70.335938 32.804688 70.335938 C 32.804688 70.335938 35.511719 74.066406 38.699219 72.832031 C 41.402344 71.78125 42.335938 68.714844 40.652344 66.460938 Z M 40.652344 66.460938 " fill-opacity="1" fill-rule="nonzero"/><path fill="#231f20" d="M 37.34375 73.433594 C 35 73.433594 33.136719 71.300781 32.65625 70.699219 C 31.996094 70.730469 29.710938 70.820312 27.273438 70.066406 C 25.921875 69.644531 21.652344 67.632812 23.488281 59.035156 C 24.871094 52.542969 29.589844 47.007812 29.648438 46.949219 C 29.738281 46.859375 29.859375 46.800781 29.980469 46.828125 C 30.101562 46.859375 30.191406 46.949219 30.25 47.070312 L 35.363281 61.949219 L 40.863281 66.1875 C 40.894531 66.21875 40.921875 66.21875 40.921875 66.25 C 41.765625 67.390625 42.035156 68.804688 41.644531 70.128906 C 41.253906 71.511719 40.203125 72.59375 38.789062 73.164062 C 38.308594 73.34375 37.828125 73.433594 37.34375 73.433594 Z M 32.804688 69.976562 C 32.925781 69.976562 33.015625 70.039062 33.078125 70.128906 C 33.105469 70.15625 35.660156 73.613281 38.546875 72.503906 C 39.75 72.019531 40.652344 71.089844 40.984375 69.917969 C 41.285156 68.835938 41.074219 67.664062 40.382812 66.699219 L 34.851562 62.429688 C 34.789062 62.402344 34.761719 62.339844 34.730469 62.28125 L 29.769531 47.851562 C 28.628906 49.292969 25.261719 53.925781 24.148438 59.183594 C 23.003906 64.597656 24.238281 68.414062 27.484375 69.40625 C 30.160156 70.21875 32.746094 69.976562 32.777344 69.976562 C 32.777344 69.976562 32.804688 69.976562 32.804688 69.976562 Z M 32.804688 69.976562 " fill-opacity="1" fill-rule="nonzero"/><path fill="#cb6ce6" d="M 33.527344 31.167969 C 30.761719 32.96875 27.15625 38.5625 26.222656 44.816406 C 25.378906 50.46875 26.011719 53.414062 27.816406 56.628906 C 29.980469 60.507812 35.480469 63.332031 42.003906 63.332031 C 48.527344 63.332031 50.785156 63.515625 55.683594 62.3125 C 60.582031 61.109375 67.496094 56.117188 63.199219 46.46875 C 63.199219 46.46875 62.476562 35.886719 56.496094 31.195312 C 53.609375 29.273438 51.714844 27.769531 46.152344 27.558594 C 40.59375 27.320312 35.722656 29.722656 33.527344 31.167969 Z M 33.527344 31.167969 " fill-opacity="1" fill-rule="nonzero"/><path fill="#231f20" d="M 45.792969 63.664062 C 45.28125 63.664062 44.742188 63.664062 44.140625 63.664062 L 42.003906 63.664062 C 35.632812 63.664062 29.800781 60.898438 27.515625 56.78125 C 25.832031 53.742188 25.019531 50.796875 25.890625 44.753906 C 26.792969 38.53125 30.402344 32.820312 33.347656 30.867188 C 36.234375 28.941406 41.132812 26.957031 46.152344 27.167969 C 51.476562 27.378906 53.519531 28.761719 56.132812 30.503906 L 56.675781 30.867188 C 62.566406 35.496094 63.4375 45.386719 63.53125 46.347656 C 65.214844 50.136719 65.332031 53.53125 63.921875 56.449219 C 62.207031 59.9375 58.597656 61.921875 55.773438 62.613281 C 51.925781 63.574219 49.699219 63.664062 45.792969 63.664062 Z M 33.527344 31.167969 L 33.707031 31.46875 C 30.882812 33.332031 27.425781 38.863281 26.554688 44.875 C 25.679688 50.765625 26.433594 53.472656 28.085938 56.480469 C 30.28125 60.386719 35.84375 63.003906 41.976562 63.003906 L 44.109375 63.003906 C 49.007812 63.003906 51.292969 63.03125 55.5625 61.980469 C 58.238281 61.320312 61.664062 59.457031 63.257812 56.179688 C 64.582031 53.441406 64.460938 50.226562 62.839844 46.617188 C 62.808594 46.589844 62.808594 46.527344 62.808594 46.5 C 62.808594 46.410156 62.027344 36.007812 56.253906 31.46875 L 55.742188 31.136719 C 53.128906 29.394531 51.234375 28.128906 46.125 27.921875 C 39.871094 27.589844 34.699219 30.804688 33.738281 31.4375 Z M 33.527344 31.167969 " fill-opacity="1" fill-rule="nonzero"/><path fill="#cb6ce6" d="M 40.652344 57.082031 C 40.652344 57.082031 42.484375 57.921875 43.359375 55.9375 Z M 40.652344 57.082031 " fill-opacity="1" fill-rule="nonzero"/><path fill="#231f20" d="M 41.554688 57.589844 C 40.984375 57.589844 40.5625 57.382812 40.53125 57.382812 C 40.351562 57.289062 40.292969 57.109375 40.351562 56.929688 C 40.441406 56.75 40.621094 56.660156 40.800781 56.75 C 40.800781 56.75 41.464844 57.050781 42.09375 56.808594 C 42.484375 56.660156 42.816406 56.328125 43.058594 55.789062 C 43.117188 55.609375 43.328125 55.515625 43.507812 55.609375 C 43.6875 55.699219 43.75 55.878906 43.6875 56.058594 C 43.386719 56.75 42.9375 57.199219 42.335938 57.441406 C 42.066406 57.5625 41.792969 57.589844 41.554688 57.589844 Z M 41.554688 57.589844 " fill-opacity="1" fill-rule="nonzero"/><path fill="#cb6ce6" d="M 45.34375 60.476562 C 45.34375 60.476562 43.238281 60.296875 42.335938 57.082031 Z M 45.34375 60.476562 " fill-opacity="1" fill-rule="nonzero"/><path fill="#231f20" d="M 45.34375 60.839844 C 45.3125 60.839844 45.3125 60.839844 45.34375 60.839844 C 45.222656 60.839844 42.96875 60.597656 42.003906 57.199219 C 41.945312 57.019531 42.066406 56.839844 42.246094 56.78125 C 42.457031 56.75 42.605469 56.839844 42.667969 57.019531 C 43.476562 59.9375 45.28125 60.148438 45.371094 60.175781 C 45.550781 60.207031 45.703125 60.355469 45.671875 60.539062 C 45.671875 60.6875 45.523438 60.839844 45.34375 60.839844 Z M 45.34375 60.839844 " fill-opacity="1" fill-rule="nonzero"/><path fill="#231f20" d="M 45.613281 47.160156 C 45.613281 47.378906 45.570312 47.589844 45.488281 47.792969 C 45.402344 47.996094 45.285156 48.175781 45.128906 48.328125 C 44.972656 48.484375 44.792969 48.605469 44.59375 48.6875 C 44.390625 48.769531 44.179688 48.8125 43.960938 48.8125 C 43.738281 48.8125 43.527344 48.769531 43.328125 48.6875 C 43.125 48.605469 42.945312 48.484375 42.789062 48.328125 C 42.636719 48.175781 42.515625 47.996094 42.429688 47.792969 C 42.347656 47.589844 42.304688 47.378906 42.304688 47.160156 C 42.304688 46.941406 42.347656 46.730469 42.429688 46.527344 C 42.515625 46.324219 42.636719 46.144531 42.789062 45.992188 C 42.945312 45.835938 43.125 45.714844 43.328125 45.632812 C 43.527344 45.546875 43.738281 45.507812 43.960938 45.507812 C 44.179688 45.507812 44.390625 45.546875 44.59375 45.632812 C 44.792969 45.714844 44.972656 45.835938 45.128906 45.992188 C 45.285156 46.144531 45.402344 46.324219 45.488281 46.527344 C 45.570312 46.730469 45.613281 46.941406 45.613281 47.160156 Z M 45.613281 47.160156 " fill-opacity="1" fill-rule="nonzero"/><path fill="#231f20" d="M 62.476562 47.160156 C 62.476562 47.378906 62.433594 47.589844 62.351562 47.792969 C 62.269531 47.996094 62.148438 48.175781 61.992188 48.328125 C 61.839844 48.484375 61.660156 48.605469 61.457031 48.6875 C 61.253906 48.769531 61.042969 48.8125 60.824219 48.8125 C 60.605469 48.8125 60.394531 48.769531 60.191406 48.6875 C 59.988281 48.605469 59.808594 48.484375 59.65625 48.328125 C 59.5 48.175781 59.378906 47.996094 59.296875 47.792969 C 59.210938 47.589844 59.171875 47.378906 59.171875 47.160156 C 59.171875 46.941406 59.210938 46.730469 59.296875 46.527344 C 59.378906 46.324219 59.5 46.144531 59.65625 45.992188 C 59.808594 45.835938 59.988281 45.714844 60.191406 45.632812 C 60.394531 45.546875 60.605469 45.507812 60.824219 45.507812 C 61.042969 45.507812 61.253906 45.546875 61.457031 45.632812 C 61.660156 45.714844 61.839844 45.835938 61.992188 45.992188 C 62.148438 46.144531 62.269531 46.324219 62.351562 46.527344 C 62.433594 46.730469 62.476562 46.941406 62.476562 47.160156 Z M 62.476562 47.160156 " fill-opacity="1" fill-rule="nonzero"/><path fill="#cb6ce6" d="M 37.644531 30.503906 C 37.644531 30.503906 37.253906 28.640625 36.203125 27.230469 C 34.789062 25.335938 32.355469 23.921875 29.921875 25.484375 C 26.792969 27.5 27.726562 30.65625 29.230469 32.730469 C 30.222656 34.082031 31.632812 34.863281 31.632812 34.863281 Z M 37.644531 30.503906 " fill-opacity="1" fill-rule="nonzero"/><path fill="#231f20" d="M 31.632812 35.226562 C 31.574219 35.226562 31.511719 35.226562 31.453125 35.195312 C 31.394531 35.164062 29.949219 34.351562 28.929688 32.941406 C 27.785156 31.347656 27.273438 29.605469 27.546875 28.191406 C 27.785156 26.988281 28.507812 25.996094 29.710938 25.214844 C 32.386719 23.5 35 25.125 36.445312 27.046875 C 37.554688 28.519531 37.945312 30.386719 37.945312 30.476562 C 37.976562 30.65625 37.855469 30.835938 37.675781 30.894531 C 37.496094 30.925781 37.316406 30.804688 37.253906 30.625 C 37.253906 30.597656 36.863281 28.820312 35.871094 27.46875 C 34.578125 25.664062 32.355469 24.3125 30.101562 25.753906 C 29.046875 26.417969 28.417969 27.289062 28.238281 28.28125 C 27.996094 29.542969 28.445312 31.078125 29.5 32.519531 C 30.429688 33.8125 31.785156 34.5625 31.8125 34.5625 C 31.996094 34.652344 32.054688 34.863281 31.964844 35.042969 C 31.875 35.164062 31.753906 35.226562 31.632812 35.226562 Z M 31.632812 35.226562 " fill-opacity="1" fill-rule="nonzero"/><path fill="#cb6ce6" d="M 31.902344 28.371094 C 31.902344 28.371094 33.496094 29.304688 34.097656 31.167969 Z M 31.902344 28.371094 " fill-opacity="1" fill-rule="nonzero"/><path fill="#231f20" d="M 34.070312 31.496094 C 33.917969 31.496094 33.796875 31.40625 33.738281 31.257812 C 33.195312 29.542969 31.722656 28.640625 31.722656 28.640625 C 31.542969 28.550781 31.511719 28.339844 31.605469 28.160156 C 31.695312 28.011719 31.902344 27.949219 32.085938 28.039062 C 32.144531 28.070312 33.796875 29.0625 34.429688 31.046875 C 34.488281 31.226562 34.398438 31.40625 34.1875 31.46875 C 34.160156 31.496094 34.128906 31.496094 34.070312 31.496094 Z M 34.070312 31.496094 " fill-opacity="1" fill-rule="nonzero"/><path fill="#231f20" d="M 61.636719 49.773438 C 61.636719 51.097656 60.101562 52.632812 58.207031 52.632812 C 56.316406 52.632812 54.78125 51.097656 54.78125 49.773438 C 54.78125 48.453125 56.316406 47.820312 58.207031 47.820312 C 60.101562 47.851562 61.636719 48.453125 61.636719 49.773438 Z M 61.636719 49.773438 " fill-opacity="1" fill-rule="nonzero"/><path fill="#231f20" d="M 58.871094 59.726562 C 58.691406 59.726562 58.539062 59.574219 58.539062 59.394531 L 58.539062 52.570312 C 58.539062 52.390625 58.691406 52.242188 58.871094 52.242188 C 59.050781 52.242188 59.199219 52.390625 59.199219 52.570312 L 59.199219 59.363281 C 59.230469 59.574219 59.050781 59.726562 58.871094 59.726562 Z M 58.871094 59.726562 " fill-opacity="1" fill-rule="nonzero"/><path fill="#cb6ce6" d="M 70.953125 65.226562 C 71.347656 64.566406 71.527344 62.582031 71.675781 61.832031 Z M 70.953125 65.226562 " fill-opacity="1" fill-rule="nonzero"/><path fill="#231f20" d="M 70.953125 65.558594 C 70.894531 65.558594 70.835938 65.527344 70.773438 65.496094 C 70.625 65.40625 70.5625 65.195312 70.65625 65.015625 C 70.925781 64.566406 71.105469 63.332031 71.195312 62.492188 C 71.226562 62.191406 71.285156 61.921875 71.316406 61.738281 C 71.347656 61.558594 71.527344 61.441406 71.707031 61.46875 C 71.886719 61.5 72.007812 61.679688 71.976562 61.859375 C 71.945312 62.039062 71.917969 62.3125 71.855469 62.582031 C 71.707031 63.574219 71.554688 64.804688 71.226562 65.347656 C 71.195312 65.496094 71.074219 65.558594 70.953125 65.558594 Z M 70.953125 65.558594 " fill-opacity="1" fill-rule="nonzero"/></svg>