<svg xmlns="http://www.w3.org/2000/svg" xmlns:xlink="http://www.w3.org/1999/xlink" width="200" zoomAndPan="magnify" viewBox="0 0 150 149.999998" height="200" preserveAspectRatio="xMidYMid meet" version="1.0"><defs><g/><clipPath id="ae056ed58d"><rect x="0" width="150" y="0" height="53"/></clipPath><clipPath id="94a2b80ad4"><path d="M 44 44 L 82.371094 44 L 82.371094 84 L 44 84 Z M 44 44 " clip-rule="nonzero"/></clipPath><clipPath id="531fad82f1"><path d="M 43 43 L 82.371094 43 L 82.371094 84.371094 L 43 84.371094 Z M 43 43 " clip-rule="nonzero"/></clipPath></defs><g transform="matrix(1, 0, 0, 1, 0, 60)"><g clip-path="url(#ae056ed58d)"><g fill="#cb6ce6" fill-opacity="1"><g transform="translate(1.372694, 41.560078)"><g><path d="M 1.78125 0 C 1.332031 0 0.921875 -0.226562 0.546875 -0.6875 C 0.179688 -1.144531 0 -1.59375 0 -2.03125 L 0.09375 -34.359375 C 0.09375 -35.035156 0.28125 -35.539062 0.65625 -35.875 C 1.03125 -36.21875 1.4375 -36.390625 1.875 -36.390625 L 10.953125 -36.34375 C 11.765625 -36.34375 12.335938 -35.9375 12.671875 -35.125 L 18.8125 -20.328125 L 24.890625 -35.125 C 25.222656 -35.9375 25.796875 -36.34375 26.609375 -36.34375 L 35.6875 -36.390625 C 36.15625 -36.390625 36.566406 -36.21875 36.921875 -35.875 C 37.273438 -35.539062 37.453125 -35.035156 37.453125 -34.359375 L 37.5625 -2.03125 C 37.5625 -1.59375 37.382812 -1.144531 37.03125 -0.6875 C 36.675781 -0.226562 36.257812 0 35.78125 0 L 27.171875 0 C 26.734375 0 26.316406 -0.175781 25.921875 -0.53125 C 25.535156 -0.882812 25.34375 -1.382812 25.34375 -2.03125 L 25.140625 -13.578125 L 21.84375 -6.6875 C 21.707031 -6.414062 21.503906 -6.109375 21.234375 -5.765625 C 20.960938 -5.429688 20.609375 -5.265625 20.171875 -5.265625 L 17.390625 -5.265625 C 16.953125 -5.265625 16.597656 -5.429688 16.328125 -5.765625 C 16.054688 -6.109375 15.851562 -6.414062 15.71875 -6.6875 L 12.421875 -13.578125 L 12.21875 -2.03125 C 12.21875 -1.382812 12.03125 -0.882812 11.65625 -0.53125 C 11.28125 -0.175781 10.859375 0 10.390625 0 Z M 1.78125 0 "/></g></g></g><g fill="#cb6ce6" fill-opacity="1"><g transform="translate(40.961081, 41.560078)"><g><path d="M 11.15625 0 L 1.921875 0 C 1.421875 0 0.972656 -0.203125 0.578125 -0.609375 C 0.191406 -1.015625 0 -1.472656 0 -1.984375 L 0.09375 -33.5625 C 0.09375 -34.132812 0.28125 -34.601562 0.65625 -34.96875 C 1.03125 -35.34375 1.488281 -35.53125 2.03125 -35.53125 L 11.765625 -35.484375 C 12.265625 -35.484375 12.722656 -35.285156 13.140625 -34.890625 C 13.566406 -34.503906 13.765625 -34.023438 13.734375 -33.453125 L 13.125 -1.984375 C 13.125 -1.441406 12.929688 -0.972656 12.546875 -0.578125 C 12.160156 -0.191406 11.695312 0 11.15625 0 Z M 11.15625 0 "/></g></g></g><g fill="#cb6ce6" fill-opacity="1"><g transform="translate(56.725472, 41.560078)"><g><path d="M 18.5 0.296875 C 18.09375 0.296875 17.722656 0.179688 17.390625 -0.046875 C 17.078125 -0.285156 16.859375 -0.609375 16.734375 -1.015625 L 12.71875 -10.953125 L 12.96875 -1.875 C 13.007812 -1.226562 12.828125 -0.722656 12.421875 -0.359375 C 11.984375 0.046875 11.507812 0.25 11 0.25 L 2.03125 0.296875 C 1.488281 0.296875 1.03125 0.113281 0.65625 -0.25 C 0.28125 -0.625 0.09375 -1.132812 0.09375 -1.78125 L 0 -34.421875 C 0 -34.921875 0.203125 -35.394531 0.609375 -35.84375 C 0.984375 -36.238281 1.421875 -36.4375 1.921875 -36.4375 L 10.140625 -36.4375 C 10.679688 -36.4375 11.15625 -36.238281 11.5625 -35.84375 C 11.925781 -35.394531 12.109375 -34.921875 12.109375 -34.421875 L 12.375 -24.078125 L 17.078125 -34.921875 C 17.242188 -35.359375 17.5 -35.679688 17.84375 -35.890625 C 18.144531 -36.054688 18.550781 -36.140625 19.0625 -36.140625 L 27.515625 -36.1875 C 28.160156 -36.1875 28.671875 -35.867188 29.046875 -35.234375 C 29.453125 -34.648438 29.519531 -34.039062 29.25 -33.40625 L 22.40625 -17.796875 L 29.40625 -2.328125 C 29.601562 -1.648438 29.515625 -1.007812 29.140625 -0.40625 C 28.734375 0.132812 28.175781 0.40625 27.46875 0.40625 Z M 18.5 0.296875 "/></g></g></g><g fill="#cb6ce6" fill-opacity="1"><g transform="translate(88.254253, 41.560078)"><g><path d="M 10.03125 -0.046875 C 7.570312 -0.859375 5.628906 -1.878906 4.203125 -3.109375 C 2.785156 -4.347656 1.753906 -6.015625 1.109375 -8.109375 C 0.472656 -10.203125 0.101562 -12.90625 0 -16.21875 C 0.101562 -19.53125 0.484375 -22.492188 1.140625 -25.109375 C 1.796875 -27.734375 2.832031 -29.945312 4.25 -31.75 C 5.675781 -33.5625 7.601562 -34.875 10.03125 -35.6875 C 11.28125 -36.09375 12.695312 -36.316406 14.28125 -36.359375 C 15.875 -36.410156 17.445312 -36.257812 19 -35.90625 C 20.5625 -35.550781 21.914062 -34.988281 23.0625 -34.21875 C 24.75 -33.0625 26.054688 -31.625 26.984375 -29.90625 C 27.921875 -28.1875 28.582031 -26.21875 28.96875 -24 C 29.351562 -21.789062 29.597656 -19.332031 29.703125 -16.625 C 29.703125 -13.550781 29.226562 -10.703125 28.28125 -8.078125 C 27.332031 -5.460938 25.59375 -3.296875 23.0625 -1.578125 C 21.914062 -0.796875 20.5625 -0.226562 19 0.125 C 17.445312 0.476562 15.875 0.628906 14.28125 0.578125 C 12.695312 0.523438 11.28125 0.316406 10.03125 -0.046875 Z M 11.65625 -17.390625 C 11.6875 -15.296875 12.015625 -13.707031 12.640625 -12.625 C 13.265625 -11.539062 13.988281 -10.972656 14.8125 -10.921875 C 15.644531 -10.867188 16.390625 -11.347656 17.046875 -12.359375 C 17.710938 -13.378906 18.078125 -14.921875 18.140625 -16.984375 C 18.140625 -19.648438 17.8125 -21.691406 17.15625 -23.109375 C 16.5 -24.535156 15.738281 -25.289062 14.875 -25.375 C 14.007812 -25.457031 13.253906 -24.835938 12.609375 -23.515625 C 11.972656 -22.203125 11.65625 -20.160156 11.65625 -17.390625 Z M 11.65625 -17.390625 "/></g></g></g><g fill="#cb6ce6" fill-opacity="1"><g transform="translate(119.985793, 41.560078)"><g><path d="M 10.03125 -0.046875 C 7.570312 -0.859375 5.628906 -1.878906 4.203125 -3.109375 C 2.785156 -4.347656 1.753906 -6.015625 1.109375 -8.109375 C 0.472656 -10.203125 0.101562 -12.90625 0 -16.21875 C 0.101562 -19.53125 0.484375 -22.492188 1.140625 -25.109375 C 1.796875 -27.734375 2.832031 -29.945312 4.25 -31.75 C 5.675781 -33.5625 7.601562 -34.875 10.03125 -35.6875 C 11.28125 -36.09375 12.695312 -36.316406 14.28125 -36.359375 C 15.875 -36.410156 17.445312 -36.257812 19 -35.90625 C 20.5625 -35.550781 21.914062 -34.988281 23.0625 -34.21875 C 24.75 -33.0625 26.054688 -31.625 26.984375 -29.90625 C 27.921875 -28.1875 28.582031 -26.21875 28.96875 -24 C 29.351562 -21.789062 29.597656 -19.332031 29.703125 -16.625 C 29.703125 -13.550781 29.226562 -10.703125 28.28125 -8.078125 C 27.332031 -5.460938 25.59375 -3.296875 23.0625 -1.578125 C 21.914062 -0.796875 20.5625 -0.226562 19 0.125 C 17.445312 0.476562 15.875 0.628906 14.28125 0.578125 C 12.695312 0.523438 11.28125 0.316406 10.03125 -0.046875 Z M 11.65625 -17.390625 C 11.6875 -15.296875 12.015625 -13.707031 12.640625 -12.625 C 13.265625 -11.539062 13.988281 -10.972656 14.8125 -10.921875 C 15.644531 -10.867188 16.390625 -11.347656 17.046875 -12.359375 C 17.710938 -13.378906 18.078125 -14.921875 18.140625 -16.984375 C 18.140625 -19.648438 17.8125 -21.691406 17.15625 -23.109375 C 16.5 -24.535156 15.738281 -25.289062 14.875 -25.375 C 14.007812 -25.457031 13.253906 -24.835938 12.609375 -23.515625 C 11.972656 -22.203125 11.65625 -20.160156 11.65625 -17.390625 Z M 11.65625 -17.390625 "/></g></g></g></g></g><path fill="#fdfdfd" d="M 51.882812 33.703125 C 51.882812 33.703125 52.277344 31.820312 53.339844 30.394531 C 54.769531 28.511719 57.195312 27.054688 59.6875 28.632812 C 62.84375 30.667969 61.902344 33.851562 60.382812 35.949219 C 59.382812 37.3125 57.957031 38.101562 57.957031 38.101562 Z M 51.882812 33.703125 " fill-opacity="1" fill-rule="nonzero"/><path fill="#cb6ce6" d="M 57.957031 38.46875 C 58.015625 38.46875 58.078125 38.46875 58.136719 38.4375 C 58.199219 38.40625 59.65625 37.585938 60.6875 36.160156 C 61.839844 34.550781 62.355469 32.792969 62.082031 31.363281 C 61.839844 30.148438 61.113281 29.148438 59.898438 28.359375 C 57.195312 26.628906 54.554688 28.269531 53.097656 30.210938 C 51.976562 31.699219 51.582031 33.582031 51.582031 33.671875 C 51.550781 33.851562 51.671875 34.035156 51.855469 34.097656 C 52.035156 34.125 52.21875 34.003906 52.277344 33.824219 C 52.277344 33.792969 52.671875 32 53.675781 30.636719 C 55.011719 28.875 57.257812 27.480469 59.535156 28.964844 C 60.597656 29.632812 61.234375 30.515625 61.414062 31.515625 C 61.660156 32.792969 61.203125 34.339844 60.140625 35.796875 C 59.199219 37.101562 57.832031 37.859375 57.804688 37.859375 C 57.621094 37.953125 57.5625 38.164062 57.652344 38.347656 C 57.710938 38.40625 57.832031 38.46875 57.957031 38.46875 Z M 57.957031 38.46875 " fill-opacity="1" fill-rule="nonzero"/><path fill="#fdfdfd" d="M 57.683594 31.546875 C 57.683594 31.546875 56.074219 32.488281 55.464844 34.371094 Z M 57.683594 31.546875 " fill-opacity="1" fill-rule="nonzero"/><path fill="#cb6ce6" d="M 55.464844 34.703125 C 55.617188 34.703125 55.738281 34.613281 55.800781 34.460938 C 56.347656 32.730469 57.832031 31.820312 57.832031 31.820312 C 58.015625 31.730469 58.046875 31.515625 57.957031 31.335938 C 57.863281 31.183594 57.652344 31.121094 57.46875 31.210938 C 57.410156 31.242188 55.738281 32.246094 55.101562 34.25 C 55.042969 34.429688 55.132812 34.613281 55.34375 34.671875 C 55.40625 34.703125 55.4375 34.703125 55.464844 34.703125 Z M 55.464844 34.703125 " fill-opacity="1" fill-rule="nonzero"/><g clip-path="url(#94a2b80ad4)"><path fill="#fdfdfd" d="M 82.148438 69.0625 C 82.148438 69.0625 79.992188 57.863281 75.5625 54.070312 C 71.128906 50.304688 49.152344 44.265625 49.152344 44.265625 L 57.773438 64.207031 C 57.773438 64.207031 48.363281 68.335938 46.722656 72.496094 C 44.8125 77.261719 44.175781 78.171875 44.175781 80.597656 C 44.175781 80.597656 44.902344 83.816406 47.148438 83.816406 C 49.394531 83.816406 51.855469 83.664062 53.949219 81.539062 C 54.828125 80.628906 55.859375 78.472656 55.859375 78.472656 L 62.023438 76.714844 C 62.023438 76.714844 67.820312 75.621094 70.371094 71.492188 C 71.039062 70.429688 71.25 69.09375 71.25 69.09375 Z M 82.148438 69.0625 " fill-opacity="1" fill-rule="nonzero"/></g><g clip-path="url(#531fad82f1)"><path fill="#cb6ce6" d="M 47.117188 84.152344 C 44.628906 84.152344 43.839844 80.8125 43.808594 80.660156 C 43.808594 78.59375 44.203125 77.59375 45.328125 74.921875 C 45.632812 74.195312 45.964844 73.375 46.390625 72.34375 C 47.9375 68.488281 55.617188 64.785156 57.316406 64.027344 L 48.820312 44.417969 C 48.757812 44.296875 48.789062 44.144531 48.878906 44.050781 C 48.96875 43.960938 49.09375 43.929688 49.242188 43.929688 C 50.15625 44.175781 71.371094 50.03125 75.804688 53.796875 C 80.265625 57.589844 82.421875 68.519531 82.480469 68.972656 C 82.511719 69.0625 82.480469 69.1875 82.421875 69.246094 C 82.359375 69.335938 82.269531 69.367188 82.148438 69.367188 L 71.492188 69.367188 C 71.402344 69.824219 71.128906 70.792969 70.613281 71.613281 C 68.003906 75.832031 62.296875 76.957031 62.054688 76.988281 L 56.074219 78.6875 C 55.832031 79.203125 54.949219 80.902344 54.160156 81.722656 C 52.035156 83.96875 49.515625 84.152344 47.117188 84.152344 Z M 44.507812 80.597656 C 44.507812 80.597656 45.207031 83.484375 47.117188 83.484375 C 49.457031 83.484375 51.734375 83.300781 53.644531 81.296875 C 54.464844 80.445312 55.496094 78.324219 55.496094 78.324219 C 55.527344 78.230469 55.617188 78.171875 55.710938 78.140625 L 61.871094 76.378906 C 61.960938 76.347656 67.578125 75.257812 70.007812 71.3125 C 70.613281 70.308594 70.824219 69.035156 70.824219 69.035156 C 70.855469 68.851562 71.007812 68.730469 71.160156 68.730469 L 81.660156 68.730469 C 81.238281 66.695312 79.082031 57.589844 75.289062 54.371094 C 71.402344 51.0625 53.492188 45.902344 49.699219 44.839844 L 58.046875 64.117188 C 58.105469 64.296875 58.046875 64.511719 57.863281 64.570312 C 57.773438 64.601562 48.574219 68.699219 46.996094 72.644531 C 46.601562 73.648438 46.238281 74.496094 45.933594 75.226562 C 44.871094 77.835938 44.507812 78.746094 44.507812 80.597656 Z M 44.507812 80.597656 " fill-opacity="1" fill-rule="nonzero"/></g><path fill="#fdfdfd" d="M 40.804688 70.003906 L 35.160156 65.664062 L 29.96875 50.519531 C 29.96875 50.519531 25.234375 56.011719 23.835938 62.597656 C 22.410156 69.1875 24.597656 72.464844 27.417969 73.3125 C 30.210938 74.164062 32.882812 73.921875 32.882812 73.921875 C 32.882812 73.921875 35.613281 77.683594 38.832031 76.441406 C 41.5625 75.378906 42.503906 72.28125 40.804688 70.003906 Z M 40.804688 70.003906 " fill-opacity="1" fill-rule="nonzero"/><path fill="#cb6ce6" d="M 37.464844 77.046875 C 35.097656 77.046875 33.214844 74.890625 32.730469 74.285156 C 32.0625 74.316406 29.757812 74.40625 27.296875 73.648438 C 25.933594 73.222656 21.621094 71.1875 23.472656 62.507812 C 24.871094 55.953125 29.636719 50.367188 29.695312 50.304688 C 29.785156 50.214844 29.90625 50.152344 30.03125 50.183594 C 30.152344 50.214844 30.242188 50.304688 30.300781 50.425781 L 35.460938 65.453125 L 41.019531 69.730469 C 41.046875 69.761719 41.078125 69.761719 41.078125 69.792969 C 41.929688 70.945312 42.203125 72.371094 41.808594 73.707031 C 41.414062 75.105469 40.351562 76.199219 38.921875 76.773438 C 38.4375 76.957031 37.953125 77.046875 37.464844 77.046875 Z M 32.882812 73.558594 C 33.003906 73.558594 33.09375 73.617188 33.15625 73.707031 C 33.1875 73.738281 35.765625 77.230469 38.679688 76.105469 C 39.894531 75.621094 40.804688 74.679688 41.140625 73.496094 C 41.441406 72.402344 41.230469 71.21875 40.53125 70.25 L 34.945312 65.9375 C 34.886719 65.90625 34.855469 65.847656 34.824219 65.785156 L 29.816406 51.214844 C 28.664062 52.671875 25.265625 57.347656 24.140625 62.660156 C 22.988281 68.125 24.230469 71.976562 27.511719 72.980469 C 30.210938 73.800781 32.820312 73.558594 32.851562 73.558594 C 32.851562 73.558594 32.882812 73.558594 32.882812 73.558594 Z M 32.882812 73.558594 " fill-opacity="1" fill-rule="nonzero"/><path fill="#fdfdfd" d="M 33.609375 34.371094 C 30.820312 36.191406 27.175781 41.835938 26.234375 48.148438 C 25.386719 53.855469 26.023438 56.832031 27.84375 60.078125 C 30.03125 63.996094 35.585938 66.847656 42.171875 66.847656 C 48.757812 66.847656 51.035156 67.03125 55.980469 65.816406 C 60.929688 64.601562 67.910156 59.5625 63.570312 49.820312 C 63.570312 49.820312 62.84375 39.136719 56.800781 34.398438 C 53.886719 32.457031 51.976562 30.9375 46.359375 30.726562 C 40.746094 30.484375 35.828125 32.914062 33.609375 34.371094 Z M 33.609375 34.371094 " fill-opacity="1" fill-rule="nonzero"/><path fill="#cb6ce6" d="M 45.996094 67.183594 C 45.480469 67.183594 44.933594 67.183594 44.328125 67.183594 L 42.171875 67.183594 C 35.734375 67.183594 29.847656 64.390625 27.539062 60.230469 C 25.839844 57.164062 25.019531 54.191406 25.902344 48.089844 C 26.8125 41.804688 30.453125 36.039062 33.429688 34.066406 C 36.34375 32.125 41.289062 30.121094 46.359375 30.332031 C 51.734375 30.542969 53.796875 31.941406 56.4375 33.703125 L 56.984375 34.066406 C 62.933594 38.742188 63.8125 48.726562 63.90625 49.699219 C 65.605469 53.523438 65.726562 56.953125 64.300781 59.898438 C 62.570312 63.417969 58.925781 65.421875 56.074219 66.121094 C 52.1875 67.089844 49.941406 67.183594 45.996094 67.183594 Z M 33.609375 34.371094 L 33.792969 34.671875 C 30.941406 36.554688 27.449219 42.140625 26.570312 48.210938 C 25.6875 54.160156 26.449219 56.890625 28.117188 59.929688 C 30.332031 63.875 35.949219 66.515625 42.140625 66.515625 L 44.296875 66.515625 C 49.242188 66.515625 51.550781 66.546875 55.859375 65.484375 C 58.5625 64.816406 62.023438 62.933594 63.632812 59.625 C 64.96875 56.863281 64.847656 53.613281 63.207031 49.972656 C 63.175781 49.941406 63.175781 49.878906 63.175781 49.851562 C 63.175781 49.757812 62.386719 39.257812 56.558594 34.671875 L 56.042969 34.339844 C 53.402344 32.578125 51.488281 31.304688 46.328125 31.089844 C 40.015625 30.757812 34.796875 34.003906 33.824219 34.644531 Z M 33.609375 34.371094 " fill-opacity="1" fill-rule="nonzero"/><path fill="#fdfdfd" d="M 40.804688 60.535156 C 40.804688 60.535156 42.65625 61.382812 43.539062 59.382812 Z M 40.804688 60.535156 " fill-opacity="1" fill-rule="nonzero"/><path fill="#cb6ce6" d="M 41.714844 61.050781 C 41.140625 61.050781 40.714844 60.839844 40.683594 60.839844 C 40.5 60.746094 40.441406 60.566406 40.5 60.382812 C 40.59375 60.199219 40.773438 60.109375 40.957031 60.199219 C 40.957031 60.199219 41.625 60.503906 42.261719 60.261719 C 42.65625 60.109375 42.992188 59.777344 43.234375 59.230469 C 43.292969 59.046875 43.507812 58.957031 43.6875 59.046875 C 43.871094 59.136719 43.933594 59.320312 43.871094 59.503906 C 43.566406 60.199219 43.113281 60.65625 42.503906 60.898438 C 42.230469 61.019531 41.957031 61.050781 41.714844 61.050781 Z M 41.714844 61.050781 " fill-opacity="1" fill-rule="nonzero"/><path fill="#fdfdfd" d="M 45.539062 63.964844 C 45.539062 63.964844 43.414062 63.78125 42.503906 60.535156 Z M 45.539062 63.964844 " fill-opacity="1" fill-rule="nonzero"/><path fill="#cb6ce6" d="M 45.539062 64.328125 C 45.511719 64.328125 45.511719 64.328125 45.539062 64.328125 C 45.417969 64.328125 43.140625 64.085938 42.171875 60.65625 C 42.109375 60.472656 42.230469 60.292969 42.414062 60.230469 C 42.625 60.199219 42.777344 60.292969 42.839844 60.472656 C 43.660156 63.417969 45.480469 63.632812 45.570312 63.660156 C 45.753906 63.691406 45.90625 63.84375 45.875 64.027344 C 45.875 64.175781 45.722656 64.328125 45.539062 64.328125 Z M 45.539062 64.328125 " fill-opacity="1" fill-rule="nonzero"/><path fill="#cb6ce6" d="M 45.8125 50.519531 C 45.8125 50.738281 45.769531 50.953125 45.6875 51.15625 C 45.601562 51.363281 45.480469 51.542969 45.324219 51.699219 C 45.167969 51.855469 44.988281 51.976562 44.78125 52.058594 C 44.578125 52.144531 44.367188 52.1875 44.144531 52.1875 C 43.921875 52.1875 43.710938 52.144531 43.503906 52.058594 C 43.300781 51.976562 43.121094 51.855469 42.964844 51.699219 C 42.808594 51.542969 42.6875 51.363281 42.601562 51.15625 C 42.515625 50.953125 42.476562 50.738281 42.476562 50.519531 C 42.476562 50.296875 42.515625 50.082031 42.601562 49.878906 C 42.6875 49.675781 42.808594 49.492188 42.964844 49.335938 C 43.121094 49.179688 43.300781 49.058594 43.503906 48.976562 C 43.710938 48.890625 43.921875 48.847656 44.144531 48.847656 C 44.367188 48.847656 44.578125 48.890625 44.78125 48.976562 C 44.988281 49.058594 45.167969 49.179688 45.324219 49.335938 C 45.480469 49.492188 45.601562 49.675781 45.6875 49.878906 C 45.769531 50.082031 45.8125 50.296875 45.8125 50.519531 Z M 45.8125 50.519531 " fill-opacity="1" fill-rule="nonzero"/><path fill="#cb6ce6" d="M 62.84375 50.519531 C 62.84375 50.738281 62.800781 50.953125 62.714844 51.15625 C 62.628906 51.363281 62.511719 51.542969 62.351562 51.699219 C 62.195312 51.855469 62.015625 51.976562 61.8125 52.058594 C 61.605469 52.144531 61.394531 52.1875 61.171875 52.1875 C 60.953125 52.1875 60.738281 52.144531 60.535156 52.058594 C 60.328125 51.976562 60.148438 51.855469 59.992188 51.699219 C 59.835938 51.542969 59.714844 51.363281 59.628906 51.15625 C 59.546875 50.953125 59.503906 50.738281 59.503906 50.519531 C 59.503906 50.296875 59.546875 50.082031 59.628906 49.878906 C 59.714844 49.675781 59.835938 49.492188 59.992188 49.335938 C 60.148438 49.179688 60.328125 49.058594 60.535156 48.976562 C 60.738281 48.890625 60.953125 48.847656 61.171875 48.847656 C 61.394531 48.847656 61.605469 48.890625 61.8125 48.976562 C 62.015625 49.058594 62.195312 49.179688 62.351562 49.335938 C 62.511719 49.492188 62.628906 49.675781 62.714844 49.878906 C 62.800781 50.082031 62.84375 50.296875 62.84375 50.519531 Z M 62.84375 50.519531 " fill-opacity="1" fill-rule="nonzero"/><path fill="#fdfdfd" d="M 37.769531 33.703125 C 37.769531 33.703125 37.375 31.820312 36.3125 30.394531 C 34.886719 28.480469 32.425781 27.054688 29.96875 28.632812 C 26.8125 30.667969 27.753906 33.851562 29.269531 35.949219 C 30.273438 37.3125 31.699219 38.101562 31.699219 38.101562 Z M 37.769531 33.703125 " fill-opacity="1" fill-rule="nonzero"/><path fill="#cb6ce6" d="M 31.699219 38.46875 C 31.636719 38.46875 31.578125 38.46875 31.515625 38.4375 C 31.457031 38.40625 30 37.585938 28.96875 36.160156 C 27.8125 34.550781 27.296875 32.792969 27.570312 31.363281 C 27.8125 30.148438 28.542969 29.148438 29.757812 28.359375 C 32.457031 26.628906 35.097656 28.269531 36.554688 30.210938 C 37.679688 31.699219 38.074219 33.582031 38.074219 33.671875 C 38.105469 33.851562 37.980469 34.035156 37.800781 34.097656 C 37.617188 34.125 37.4375 34.003906 37.375 33.824219 C 37.375 33.792969 36.980469 32 35.980469 30.636719 C 34.671875 28.816406 32.425781 27.449219 30.152344 28.90625 C 29.089844 29.574219 28.449219 30.453125 28.269531 31.457031 C 28.027344 32.730469 28.480469 34.277344 29.542969 35.734375 C 30.484375 37.039062 31.851562 37.800781 31.882812 37.800781 C 32.0625 37.890625 32.125 38.101562 32.03125 38.285156 C 31.941406 38.40625 31.820312 38.46875 31.699219 38.46875 Z M 31.699219 38.46875 " fill-opacity="1" fill-rule="nonzero"/><path fill="#fdfdfd" d="M 31.972656 31.546875 C 31.972656 31.546875 33.582031 32.488281 34.1875 34.371094 Z M 31.972656 31.546875 " fill-opacity="1" fill-rule="nonzero"/><path fill="#cb6ce6" d="M 34.15625 34.703125 C 34.007812 34.703125 33.882812 34.613281 33.824219 34.460938 C 33.277344 32.730469 31.789062 31.820312 31.789062 31.820312 C 31.609375 31.730469 31.578125 31.515625 31.667969 31.335938 C 31.757812 31.183594 31.972656 31.121094 32.152344 31.210938 C 32.214844 31.242188 33.882812 32.246094 34.523438 34.25 C 34.582031 34.429688 34.492188 34.613281 34.277344 34.671875 C 34.25 34.703125 34.21875 34.703125 34.15625 34.703125 Z M 34.15625 34.703125 " fill-opacity="1" fill-rule="nonzero"/><path fill="#cb6ce6" d="M 61.992188 53.160156 C 61.992188 54.496094 60.445312 56.042969 58.53125 56.042969 C 56.621094 56.042969 55.070312 54.496094 55.070312 53.160156 C 55.070312 51.824219 56.621094 51.1875 58.53125 51.1875 C 60.445312 51.214844 61.992188 51.824219 61.992188 53.160156 Z M 61.992188 53.160156 " fill-opacity="1" fill-rule="nonzero"/><path fill="#cb6ce6" d="M 59.199219 63.207031 C 59.019531 63.207031 58.867188 63.054688 58.867188 62.871094 L 58.867188 55.980469 C 58.867188 55.800781 59.019531 55.648438 59.199219 55.648438 C 59.382812 55.648438 59.535156 55.800781 59.535156 55.980469 L 59.535156 62.839844 C 59.5625 63.054688 59.382812 63.207031 59.199219 63.207031 Z M 59.199219 63.207031 " fill-opacity="1" fill-rule="nonzero"/><path fill="#fdfdfd" d="M 71.402344 68.761719 C 71.796875 68.09375 71.980469 66.089844 72.128906 65.332031 Z M 71.402344 68.761719 " fill-opacity="1" fill-rule="nonzero"/><path fill="#cb6ce6" d="M 71.402344 69.09375 C 71.339844 69.09375 71.28125 69.0625 71.21875 69.035156 C 71.070312 68.941406 71.007812 68.730469 71.097656 68.546875 C 71.371094 68.09375 71.554688 66.847656 71.644531 66 C 71.675781 65.695312 71.734375 65.421875 71.765625 65.238281 C 71.796875 65.058594 71.980469 64.9375 72.160156 64.964844 C 72.34375 64.996094 72.464844 65.179688 72.433594 65.359375 C 72.402344 65.542969 72.375 65.816406 72.3125 66.089844 C 72.160156 67.089844 72.007812 68.335938 71.675781 68.882812 C 71.644531 69.035156 71.523438 69.09375 71.402344 69.09375 Z M 71.402344 69.09375 " fill-opacity="1" fill-rule="nonzero"/></svg>